<?xml version="1.0" encoding="UTF-8" standalone="no"?>
<svg
   xmlns:dc="http://purl.org/dc/elements/1.1/"
   xmlns:cc="http://creativecommons.org/ns#"
   xmlns:rdf="http://www.w3.org/1999/02/22-rdf-syntax-ns#"
   xmlns:svg="http://www.w3.org/2000/svg"
   xmlns="http://www.w3.org/2000/svg"
   xmlns:sodipodi="http://sodipodi.sourceforge.net/DTD/sodipodi-0.dtd"
   xmlns:inkscape="http://www.inkscape.org/namespaces/inkscape"
   viewBox="0 0 93.5848 109.263"
   version="1.1"
   id="svg3819"
   sodipodi:docname="Asset-6.svg"
   inkscape:version="0.92.3 (2405546, 2018-03-11)"
   width="93.584801"
   height="109.263">
  <metadata
     id="metadata3823">
    <rdf:RDF>
      <cc:Work
         rdf:about="">
        <dc:format>image/svg+xml</dc:format>
        <dc:type
           rdf:resource="http://purl.org/dc/dcmitype/StillImage" />
        <dc:title></dc:title>
      </cc:Work>
    </rdf:RDF>
  </metadata>
  <sodipodi:namedview
     pagecolor="#ffffff"
     bordercolor="#666666"
     borderopacity="1"
     objecttolerance="10"
     gridtolerance="10"
     guidetolerance="10"
     inkscape:pageopacity="0"
     inkscape:pageshadow="2"
     inkscape:window-width="2256"
     inkscape:window-height="1410"
     id="namedview3821"
     showgrid="false"
     inkscape:zoom="7.5415901"
     inkscape:cx="-9.4648104"
     inkscape:cy="58.716568"
     inkscape:window-x="-11"
     inkscape:window-y="-11"
     inkscape:window-maximized="1"
     inkscape:current-layer="Layer_1-2"
     inkscape:lockguides="true"
     fit-margin-top="0"
     fit-margin-left="0"
     fit-margin-right="0"
     fit-margin-bottom="0" />
  <defs
     id="defs3771">
    <style
       id="style3769">.cls-1{fill:#ee87b7;}</style>
  </defs>
  <g
     id="Layer_2"
     data-name="Layer 2"
     transform="translate(-7.5358713,-1.5001759)">
    <g
       id="Layer_1-2"
       data-name="Layer 1">
      <path
         class="cls-1"
         d="m 71.804267,57.270176 a 29.23,29.23 0 0 0 -12.93,3 c 9.91,-20.38 9,-39.640001 3.41,-49.630001 -3.28,-5.8899991 -8.26,-9.1399991 -14.05,-9.1399991 v 0 c -5.11,0 -9.619997,3.11 -12.619997,8.7099991 a 32.64,32.64 0 0 0 -3,8.08 c -0.64,-0.46 -1.27,-0.9 -1.9,-1.3 -6.88,-4.4 -13.14,-4.72 -17.64,-0.89 -4.0600003,3.46 -5.9600003,8.5 -5.4600003,14.590001 0.48,6.28 3.5500003,13.57 8.6600003,20.53 a 73.59,73.59 0 0 0 18.44,17.38 v 0 c 2.82,2.14 5,-1.77 3.1,-3.06 -14.5,-9.41 -25.12,-23.73 -26,-35.19 -0.36,-4.730001 1,-8.440001 4,-11.000001 a 6.89,6.89 0 0 1 4.59,-1.65 c 2.8,0 5.73,1.39 8.05,2.88 a 35.05,35.05 0 0 1 3.31,2.42 55,55 0 0 0 -0.3,10.770001 60.86,60.86 0 0 0 8.61,27.42 2.13,2.13 0 0 0 1.32,1 2.1,2.1 0 0 0 1.589997,-0.27 2.13,2.13 0 0 0 0.63,-2.98 55.91,55.91 0 0 1 -7.999997,-32.330001 67.73,67.73 0 0 1 10.529997,14.370001 c 5,9.08 7,17.59 5.54,23.35 v 0 0 c -0.58,1.26 -0.76,3.18 -0.13,3.84 a 2,2 0 0 0 2.88,0.08 25.24,25.24 0 1 1 32.05,38.830004 2,2 0 0 0 1.19,3.68 2,2 0 0 0 1.18,-0.38 29.3,29.3 0 0 0 -17,-53.140004 z m -22,-18.34 v 0 A 69.4,69.4 0 0 0 36.25427,21.330175 a 30.14,30.14 0 0 1 3,-9.06 c 1.61,-2.9999995 4.469997,-6.5099991 8.919997,-6.5099991 v 0 c 5.44,0 8.66,3.7399996 10.44,6.9499991 3.07,5.52 4.25,13.46 3.32,22.360001 a 68.91,68.91 0 0 1 -5.87,21.25 52.36,52.36 0 0 0 -6.22,-17.39 z"
         id="path3815"
         inkscape:connector-curvature="0"
         style="fill:#ee87b7" />
      <circle
         style="fill:#ee87b7;fill-opacity:1"
         id="path94"
         cx="74.785286"
         cy="75.956131"
         r="1.9889705" />
    </g>
  </g>
</svg>
